<svg t="1724828792325" class="icon" viewBox="0 0 1024 1024" version="1.1" xmlns="http://www.w3.org/2000/svg" p-id="4420"
    width="200" height="200">
    <path
        d="M885.76 494.08L494.08 885.76h108.8l282.88-282.88V494.08z m-696.32 87.04l391.68-391.68H472.32L189.44 472.32v108.8z m65.28 304.64L885.76 254.72V233.472s0-18.6368-12.8-31.3856c-12.9024-12.8512-30.72-12.6464-30.72-12.6464h-21.76L189.44 820.48v21.76s-0.1536 15.9744 11.3152 29.7472c11.3664 13.7728 32.2048 13.7728 32.2048 13.7728h21.76zM189.44 232.96v609.28c0 24.064 19.456 43.52 43.52 43.52h609.28c24.064 0 43.52-19.456 43.52-43.52V232.96a43.52 43.52 0 0 0-43.52-43.52H232.96a43.52 43.52 0 0 0-43.52 43.52z m-87.04 0A130.56 130.56 0 0 1 232.96 102.4h609.28A130.56 130.56 0 0 1 972.8 232.96v609.28A130.56 130.56 0 0 1 842.24 972.8H232.96A130.56 130.56 0 0 1 102.4 842.24V232.96z"
        p-id="4421" fill="#bfbfbf"></path>
</svg>