<?xml version="1.0" standalone="no"?><!DOCTYPE svg PUBLIC "-//W3C//DTD SVG 1.1//EN" "http://www.w3.org/Graphics/SVG/1.1/DTD/svg11.dtd"><svg t="1724831174594" class="icon" viewBox="0 0 1024 1024" version="1.1" xmlns="http://www.w3.org/2000/svg" p-id="13934" xmlns:xlink="http://www.w3.org/1999/xlink" width="200" height="200"><path d="M820.724269 72.126332c-9.685487 38.342546-8.087881 73.68958-46.530277 97.15442-83.774468 51.123394-164.154024 107.83841-245.332382 163.055669-12.880699 8.786833-21.467832 8.587133-34.14883-0.09985-79.880304-54.318606-159.760607-108.737063-241.138667-160.858961-25.961099-16.575163-40.738955-35.446885-44.83282-66.400503-5.092369-37.843294-7.289078-38.142845 28.357508-51.922197C425.216916-19.436465 612.935629-17.739009 799.555988 58.746382c8.087881 3.494763 14.877707 9.485786 21.168281 13.37995z m-145.182452 46.230726H347.633171c55.117409 36.645089 104.243796 69.595714 153.769584 101.947238 4.493267 2.895661 13.379951 4.493267 17.274116 1.997007 50.723993-32.850775 100.948734-66.700053 156.864946-103.944245zM413.634272 549.411146v243.335375h194.009287V548.312792c38.941648 19.271123 73.58973 35.846286 107.538859 53.619654 3.694464 1.997008 5.092369 11.283093 5.092369 17.274116 0.299551 107.239308 0.399402 214.478615-0.199701 321.717922-0.09985 7.78833-3.994015 17.473816-9.485786 23.065438-12.481297 12.581148-27.059453 23.065438-44.333568 37.543743-10.48429-28.257657-19.970076-54.418457-29.855264-80.379556-8.087881-21.16828-11.183243-50.524292-26.759901-60.808881-16.575163-11.083392-45.132372-4.493267-68.597211-4.792818-36.545239-0.399402-73.190328 0.698953-109.635717-0.499252-15.87621-0.499252-22.965587 5.591621-27.958106 19.970076-13.779352 39.940152-28.95661 79.281201-43.634616 118.821951-0.499252 1.497756-1.897157 2.59611-4.293566 5.791322-15.476809-12.780849-31.752421-24.762894-46.031025-38.741947-4.892669-4.792818-6.789826-14.478305-6.889676-21.967083-0.399402-105.641701-0.698953-211.283403 0.399401-316.925105 0.09985-8.786833 7.88818-21.16828 15.67651-25.461847 29.455862-16.375462 60.50933-30.254665 94.957711-47.129379z" p-id="13935" fill="#bfbfbf"></path><path d="M414.433075 509.171443c-65.202298-10.683991-125.212376-20.369477-185.122604-30.554216-6.090873-0.998504-11.882195-5.092369-17.074415-8.686983-46.230726-33.050476-92.661152-66.001101-138.192925-99.95023-6.989527-5.19222-13.2801-14.678006-15.077407-23.165288C38.795947 251.457614 19.624674 155.900801 0.253701 60.443838c-0.399402-2.196708-0.09985-4.593117-0.099851-9.585636 53.220252 4.792818 105.442001 9.385936 157.66375 14.678005 3.594614 0.399402 7.688479 5.29207 9.685486 8.986535C169.799645 78.716458 170.798149 83.908677 170.798149 88.701495c0.599102 62.106936 34.548231 99.550828 87.169381 127.508935C295.111871 235.880955 328.561748 262.441156 363.309681 286.405247c6.190724 4.293566 14.078904 10.783841 15.277108 17.274115 12.481297 66.799904 23.66454 133.899359 35.846286 205.492081z m-98.152923-164.453575c2.296559-2.096858 4.792818-4.193716 7.089377-6.290573-7.588629-10.783841-13.0804-24.563193-23.265139-31.652571-63.404991-44.034017-127.708635-86.470429-191.912429-129.406092-4.792818-3.195212-10.48429-5.29207-15.67651-7.88818-1.997008 1.997008-4.093866 3.994015-6.090873 5.991023 8.087881 10.48429 14.378455 23.56469 24.663044 30.953618 42.336561 30.154815 85.971177 58.512322 129.106541 87.468932 25.361996 16.874714 50.723993 33.849279 76.085989 50.823843z m-203.095672-83.474917c-2.296559 1.797307-4.493267 3.694464-6.689975 5.391921 6.689975 10.284589 11.083392 23.964091 20.569178 30.454365 64.603196 44.932671 130.304745 88.267735 195.806594 132.002202 2.895661 1.997008 6.689975 2.795811 9.985038 4.093866 1.997008-1.897157 4.093866-3.694464 6.090873-5.591622-7.98803-10.48429-14.078904-23.56469-24.163792-30.953617-34.14883-24.663044-69.695565-47.42893-104.842898-70.89377-32.351523-21.367981-64.603196-42.935663-96.755018-64.503345zM609.241165 508.871892c11.982046-71.393021 22.965587-138.492476 35.147334-205.29238 1.198205-6.490275 9.286085-12.680998 15.676509-17.074415 52.321599-35.646585 105.442001-69.995116 157.064647-106.540355 10.48429-7.488778 16.275612-21.967083 23.364989-33.849278 2.296559-3.994015 1.997008-9.385936 3.095362-14.178754 4.892669-21.268131 3.095362-51.123394 16.475312-61.607684 15.77636-12.381447 44.63312-8.387432 67.898258-10.783841 30.554216-3.095362 61.108432-5.491771 94.458459-8.387432-0.599102 8.587133-0.299551 15.67651-1.697456 22.266634-17.973068 89.066538-35.646585 178.232927-55.017559 266.999915-2.795811 12.581148-12.381447 26.160799-22.765887 34.24868-39.840301 30.654066-80.878807 59.910228-122.516415 88.167885-13.479801 9.186235-29.855263 16.275612-45.931175 19.271124-53.220252 9.785337-106.839906 17.473816-165.252378 26.759901z m329.705953-340.090392c-8.886684 0.998504-10.783841 0.698953-11.882195 1.497756-70.194817 46.729978-140.489484 93.160404-209.985348 140.988735-7.688479 5.29207-9.885188 18.37247-17.373966 33.449877 10.48429-3.494763 13.0804-3.794314 14.877707-5.092369 67.399006-45.032521 135.197414-89.665641 201.797616-135.796516 9.385936-6.490275 13.579652-20.669029 22.566186-35.047483zM686.325658 429.191289c2.59611 1.497756 5.29207 3.095362 7.98803 4.593118 69.196313-46.330576 138.592327-92.361601 206.989837-139.790531 8.087881-5.591621 10.48429-19.470824 17.573667-33.749429-8.387432 2.496259-10.883691 2.59611-12.680998 3.794315-67.998108 45.431923-136.096067 90.464444-203.395223 136.99472-8.087881 5.691472-11.183243 18.672021-16.475313 28.157807zM935.851756 422.601164c-6.390424 88.367586-12.281597 169.246393-18.172769 250.125201-2.59611 35.646585-4.992519 71.293171-8.08788 106.839906-0.698953 7.78833-1.497756 18.072919-6.490275 22.366485-46.929678 40.738955-94.957711 80.479406-146.180956 123.514919-0.898653-11.582644-1.797307-18.37247-1.797306-25.262146-0.09985-92.561302 0.299551-185.122604-0.399402-277.683905-0.09985-15.576659 4.193716-26.060949 17.673517-33.949129 11.183243-6.490275 20.569178-16.075911 31.952122-22.266634 22.266635-12.081896 33.649578-28.457358 29.356011-54.718008-0.998504-6.090873 1.997008-15.67651 6.590125-19.271124 29.455862-22.466335 59.810377-43.734466 95.556813-69.695565zM267.752867 926.446179c-52.022048-43.634616-98.152923-81.977162-143.684696-121.01866-4.892669-4.193716-8.886684-11.982046-9.385935-18.372469-9.086385-117.324196-17.473816-234.548541-25.861249-351.872738-0.09985-2.096858 1.198205-4.293566 2.895661-9.385935 31.153318 22.466335 61.807385 43.135364 90.464444 66.200801 6.090873 4.992519 7.488778 18.971572 6.989527 28.557209-0.998504 17.274116 3.095362 30.454366 19.370973 37.743443 51.123394 23.065438 64.303644 62.306637 60.50933 116.924795-5.092369 72.691076-1.198205 145.881404-1.198204 218.971882-0.09985 8.387432-0.09985 16.974565-0.099851 32.251672zM575.092335 758.897243H448.382204c-0.09985-144.6832 8.287581-289.266549-33.649578-430.055585 2.396409-1.098354 4.792818-2.196708 7.189227-3.195212 21.467832 14.178754 43.634616 27.159303 63.904243 42.735962 17.873218 13.779352 32.351523 15.77636 51.023544 0.499252 19.770375-16.075911 42.336561-28.657059 67.598707-41.238206-36.145837 141.787539-31.752421 285.272534-29.356012 431.253789zM637.398972 1024H386.175417c15.976061-43.235214 30.654066-84.373571 46.630128-124.912825 1.797307-4.493267 11.382943-8.387432 17.373966-8.487282 41.338057-0.698953 82.775965-0.698953 124.313722 0.09985 5.891172 0.09985 15.077407 4.393417 16.874714 9.086385 15.87621 40.639104 30.454366 81.67761 46.031025 124.213872z" p-id="13936" fill="#bfbfbf"></path><path d="M675.541817 118.357058c-55.916213 37.244192-106.140953 70.99362-156.864946 103.944245-3.794314 2.496259-12.780849 0.898653-17.274116-1.997007-49.525788-32.351523-98.652175-65.302148-153.769584-101.947238h327.908646zM316.280152 344.717868c-25.361996-16.974565-50.823843-33.849279-76.085989-50.923693-43.135364-28.95661-86.76998-57.314118-129.106541-87.468932-10.284589-7.289078-16.575163-20.469328-24.663044-30.953618 1.997008-1.997008 4.093866-3.994015 6.090873-5.991023 5.29207 2.59611 10.883691 4.692968 15.67651 7.88818 64.203794 42.835813 128.507438 85.372074 191.912429 129.406092 10.184739 7.089377 15.67651 20.868729 23.265139 31.65257-2.296559 2.096858-4.692968 4.193716-7.089377 6.390424zM113.18448 261.242951c32.151822 21.467832 64.403495 42.935663 96.555317 64.503345 35.047483 23.464839 70.694069 46.230726 104.842898 70.89377 10.184739 7.388928 16.275612 20.569178 24.163792 30.953617-1.997008 1.897157-4.093866 3.694464-6.090873 5.591622-3.394913-1.298055-6.989527-2.096858-9.985038-4.093866-65.401999-43.734466-131.103548-87.169381-195.806594-132.002202-9.385936-6.490275-13.779352-20.169777-20.569178-30.454365 2.396409-1.697456 4.593117-3.494763 6.889676-5.391921zM938.947118 168.7815c-8.986534 14.378455-13.18025 28.557209-22.566186 35.047483-66.700053 46.130875-134.398611 90.763995-201.797616 135.796516-1.897157 1.198205-4.393417 1.497756-14.877707 5.092369 7.488778-15.077407 9.785337-28.257657 17.373966-33.449877 69.495864-47.828332 139.790531-94.258758 209.985348-140.988735 1.198205-0.798803 3.095362-0.399402 11.882195-1.497756zM686.325658 429.191289c5.39192-9.585636 8.387432-22.466335 16.475313-28.057956 67.199305-46.430426 135.397115-91.562798 203.395223-136.994721 1.797307-1.198205 4.193716-1.298055 12.680998-3.794314-7.089377 14.178754-9.485786 28.057957-17.573667 33.749428-68.39751 47.528781-137.893374 93.459955-206.989837 139.790531-2.69596-1.597606-5.39192-3.195212-7.98803-4.692968z" fill="#bfbfbf" p-id="13937"></path></svg>