<?xml version="1.0" standalone="no"?><!DOCTYPE svg PUBLIC "-//W3C//DTD SVG 1.1//EN" "http://www.w3.org/Graphics/SVG/1.1/DTD/svg11.dtd"><svg t="1724895319791" class="icon" viewBox="0 0 1024 1024" version="1.1" xmlns="http://www.w3.org/2000/svg" p-id="4373" xmlns:xlink="http://www.w3.org/1999/xlink" width="200" height="200"><path d="M987.51038 409.7H809.11038l-65.3-91.3c-13-19.6-41.3-17.4-54.4 2.2l-145.7 237-174-280.7c-13-21.7-45.7-23.9-56.5 0l-84.8 154.4h-89.1c-17.4 0-32.6 15.2-32.6 32.6 0 17.4 15.2 32.6 32.6 32.6H248.01038c13 0 23.9-4.3 28.3-15.2l67.4-123.9 171.8 278.4c13 19.6 43.5 21.7 54.4 0l147.9-239.3 47.8 65.2c6.5 8.7 15.2 13 26.1 13h152.2C913.51038 583.4 837.41038 670.5 728.51038 764c-52.2 43.5-106.5 84.8-160.9 119.6-19.6 13-37 23.9-52.2 32.6-2.2 0-2.2 2.2-4.3 2.2-2.2 0-2.2-2.2-4.3-2.2-15.2-8.7-34.8-19.6-52.2-32.6-54.4-34.8-110.9-76.1-160.9-119.6C152.31038 642.3 67.41038 516.2 65.21038 390.1 63.11038 120.4 365.41038 7.3 485.01038 209.5c13 21.7 43.5 21.7 56.5 0C659.01038 24.7 922.21038 98.6 957.01038 331.4c2.2 17.4 19.6 30.4 37 28.3 17.4-2.2 30.4-19.6 28.3-37C981.01038 50.8 676.51038-51.5 513.41038 137.8 345.81038-71-2.18962 74.7 0.01038 392.3c2.2 147.9 95.7 289.3 252.3 421.9 54.4 45.7 110.9 87 169.6 123.9 19.6 13 39.1 23.9 56.5 34.8 6.5 4.3 10.9 6.5 15.2 8.7 2.2 2.2 4.3 2.2 6.5 2.2 8.7 4.3 21.7 4.3 30.4 0 2.2 0 2.2-2.2 6.5-2.2 4.3-2.2 10.9-6.5 15.2-8.7 17.4-8.7 34.8-21.7 56.5-34.8 56.5-37 115.2-78.3 169.6-123.9 134.8-115.2 224.1-237.1 245.8-365.4 0.3-19.6-14.9-39.1-36.6-39.1z" p-id="4374" fill="#bfbfbf"></path></svg>