<?xml version="1.0" standalone="no"?><!DOCTYPE svg PUBLIC "-//W3C//DTD SVG 1.1//EN" "http://www.w3.org/Graphics/SVG/1.1/DTD/svg11.dtd"><svg t="1724899530989" class="icon" viewBox="0 0 1024 1024" version="1.1" xmlns="http://www.w3.org/2000/svg" p-id="8210" xmlns:xlink="http://www.w3.org/1999/xlink" width="200" height="200"><path d="M213.333 640v85.333a85.333 85.333 0 0 0 78.934 85.12l6.4 0.214h128V896h-128A170.667 170.667 0 0 1 128 725.333V640h85.333zM768 426.667L955.733 896h-91.946l-51.243-128H638.037L586.88 896h-91.904l187.69-469.333H768zM725.333 549.76l-53.205 132.907h106.325l-53.12-132.907z m-384-464.427v85.334H512v298.666H341.333v128H256v-128H85.333V170.667H256V85.333h85.333z m384 42.667A170.667 170.667 0 0 1 896 298.667V384h-85.333v-85.333a85.333 85.333 0 0 0-85.334-85.334h-128V128h128zM256 256h-85.333v128H256V256z m170.667 0h-85.334v128h85.334V256z" p-id="8211" fill="#bfbfbf"></path></svg>